<svg width="16" height="16" viewBox="0 0 16 16" fill="none" xmlns="http://www.w3.org/2000/svg">
<path d="M8.84937 5.66398L8.95944 6.00269C9.07882 6.37072 9.42178 6.61989 9.80869 6.6197H10.165C11.03 6.6197 11.3896 7.72667 10.6896 8.23493L10.4015 8.44464C10.0886 8.67196 9.9576 9.07499 10.0772 9.44286L10.1885 9.78158C10.4557 10.6044 9.51436 11.2884 8.81437 10.7801L8.52628 10.5704C8.21326 10.3431 7.78949 10.3431 7.47646 10.5704L7.18838 10.7801C6.48839 11.2884 5.54702 10.6044 5.8142 9.78158L5.92428 9.44286C6.04384 9.07499 5.91289 8.67199 5.59992 8.44464L5.31184 8.23493C4.61185 7.7267 4.97147 6.6197 5.83641 6.6197H6.19276C6.57967 6.61989 6.92263 6.37072 7.04201 6.00269L7.15078 5.66398C7.41837 4.84117 8.58183 4.84117 8.84937 5.66398Z" fill="#FF347D"/>
<path d="M2.28744 7.80335C2.33388 6.42341 2.88003 5.1073 3.82427 4.09994L3.82132 4.09732L2.20447 2.48047C0.831942 3.91801 0.0457607 5.81632 0 7.80335H2.28647H2.28744Z" fill="#FF347D"/>
<path d="M4.10084 3.82427C5.10814 2.88011 6.42409 2.33396 7.80392 2.28744C7.80373 2.28625 7.80373 2.28503 7.80392 2.28384V0C5.81714 0.0457607 3.9191 0.831834 2.48169 2.20414L4.09822 3.82132L4.10084 3.82427Z" fill="#FF347D"/>
<path d="M11.8994 12.1758C10.8921 13.1202 9.57603 13.6664 8.19604 13.7129C8.19623 13.7141 8.19623 13.7153 8.19604 13.7165V16.0004C10.1836 15.9551 12.0824 15.1689 13.5202 13.7959L11.9034 12.1787L11.8994 12.1758Z" fill="#FF347D"/>
<path d="M7.80408 13.7129C6.42398 13.6665 5.10774 13.1202 4.10032 12.1758L4.09803 12.1787L2.4812 13.7959C3.91899 15.1689 5.81787 15.9551 7.8054 16.0004V13.7165C7.80475 13.7154 7.80432 13.7142 7.80408 13.7129Z" fill="#FF347D"/>
<path d="M3.82427 11.8984C2.88012 10.8911 2.33396 9.57514 2.28744 8.19531H0.000976562C0.0460071 10.1827 0.831864 12.0816 2.20447 13.5195L3.82132 11.9023C3.82197 11.9008 3.823 11.8994 3.82427 11.8984Z" fill="#FF347D"/>
<path d="M13.7126 8.19531C13.6662 9.57525 13.12 10.8914 12.1758 11.8987C12.1769 11.8993 12.1779 11.9001 12.1787 11.901L13.7956 13.5195C15.1685 12.0817 15.9548 10.1828 16 8.19531H13.7136H13.7126Z" fill="#FF347D"/>
<path d="M12.1758 4.1019C13.1199 5.1092 13.6661 6.42515 13.7126 7.80497H15.9991C15.9535 5.8182 15.1677 3.92002 13.7956 2.48242L12.1787 4.09927L12.1758 4.1019Z" fill="#FF347D"/>
<path d="M8.19604 2.28744C9.57598 2.33388 10.8921 2.88003 11.8994 3.82427L11.9021 3.82132L13.5186 2.20414C12.0811 0.831753 10.1829 0.0456796 8.19604 0V2.28384C8.19623 2.28503 8.19623 2.28625 8.19604 2.28744Z" fill="#FF347D"/>
</svg>
