<svg width="479" height="512" viewBox="0 0 479 512" fill="none" xmlns="http://www.w3.org/2000/svg">
<path fill-rule="evenodd" clip-rule="evenodd" d="M110.986 454.943C116.693 454.943 127.072 468.942 138.982 468.942C141.995 468.942 158.966 454.943 161.979 454.943C166.786 454.943 178.566 469.941 186.976 469.941C190.954 469.941 197.072 464.877 199.974 462.942C203.057 460.886 209.53 455.861 212.972 454.942C215.609 456.708 219.804 462.705 222.266 465.646C225.313 469.285 229.255 472.735 232.706 476.204L255.967 494.937C235.942 494.937 179.367 495.96 163.517 493.4C149.545 491.143 138.51 487.608 127.622 482.301L106.12 468.806C103.644 466.923 102.137 464.783 98.9858 463.941C100.077 459.854 110.313 454.942 110.984 454.942L110.986 454.943ZM49.994 397.95L59.7545 387.713C65.3892 391.565 79.5048 409.948 84.9893 409.948C92.6844 409.948 101.775 394.119 110.986 387.951C116.382 391.565 130.498 409.948 135.983 409.948C143.19 409.948 152.506 392.518 155.981 385.951C198.832 408.625 170.012 388.652 197.771 432.15C199.733 435.224 201.605 436.486 201.975 440.945C198.146 441.967 191.198 447.71 186.977 449.943C156.099 433.605 171.606 426.758 136.983 449.943C133.328 448.967 127.918 444.527 124.708 442.22C122.422 440.577 121.05 439.872 118.724 438.203C116.68 436.737 114.344 435.358 111.866 435.244C106.578 435.002 91.4859 447.034 85.9885 449.943C74.9534 442.555 56.8901 413.384 49.993 397.95H49.994ZM170.979 373.953C155.948 370.451 153.095 352.722 134.983 386.951C130.636 384.04 127.102 379.569 123.234 375.703C121.153 373.621 119.8 372.245 117.786 370.152C106.314 358.232 98.5973 379.839 84.9893 388.951C83.3183 386.455 67.8851 370.688 65.221 368.718C55.4324 361.48 48.9908 375.598 40.9954 380.952C39.2733 373.56 31.37 355.437 27.997 340.957C35.2426 339.023 43.3792 323.265 43.9949 320.959C53.1898 327.116 61.5266 342.273 68.8492 341.665C75.4961 341.112 87.6875 324.179 93.9889 319.96C98.3661 322.892 102.305 327.776 106.237 331.709C109.63 335.102 114.309 341.807 120.023 342.032C128.984 342.386 136.821 326.764 146.982 319.96C151.34 322.877 159.885 329.722 161.249 334.689L170.98 373.954L170.979 373.953ZM17.9982 260.967C43.4863 274.454 40.66 278.8 56.2434 263.217C60.176 259.284 65.0608 255.346 67.9922 250.969C76.2109 256.472 85.9304 272.966 94.9891 272.966C102.684 272.966 111.775 257.136 120.986 250.969C125.252 251.962 147.805 266.698 153.982 269.966C153.982 276.598 154.02 282.056 154.706 287.24C155.296 291.707 155.982 300.058 155.982 303.962C149.348 302.191 154.753 298.963 142.984 298.963C139.341 298.963 124.428 316.987 119.987 319.96C113.501 315.617 101.405 298.427 93.9999 298.371C86.2097 298.31 74.614 315.527 67.9922 319.96C54.7366 311.084 45.2514 285.563 31.9897 305.955L22.9971 318.96C22.7579 308.2 17.9982 295.114 17.9982 260.967ZM306.962 493.938C288.162 493.938 264.247 480.984 250.192 468.719C173.116 401.454 158.685 271.057 180.401 171.401C185.56 147.727 194.577 123.801 204.976 102.987C210.488 91.954 223.111 70.9963 232.211 61.2307L243.97 48.9933C256.493 39.4861 252.115 39.9636 271.01 29.0388C297.384 13.7888 319.392 16.1405 346.252 27.7032C355.757 31.795 368.427 40.3501 376.27 46.6786C429.762 89.8455 460.334 175.366 459.931 243.982C459.901 249.113 460.839 252.727 460.839 255.968C460.839 259.14 459.901 261.985 459.921 266.942C460.067 304.149 451.419 345.568 437.239 379.244C423.578 411.687 403.787 443.051 376.27 465.256C368.13 471.825 355.97 480.053 346.103 484.083C335.4 488.455 322.127 493.937 306.963 493.937L306.962 493.938ZM119.986 230.971C113.997 230.971 110.271 237.239 106.105 241.088L103.077 244.059C102.931 244.205 102.726 244.418 102.58 244.562L97.3379 249.319C94.7388 252.056 95.8891 249.595 94.9881 252.969C86.2037 250.623 77.7738 230.972 66.992 230.972C63.1585 230.972 42.9066 252.115 40.9954 254.969L17.9982 241.971C17.9982 234.685 19.6212 208.381 21.7016 204.68C21.8758 204.371 37.7375 189.337 41.9956 182.979C51.2064 189.148 60.2961 204.976 67.9922 204.976C73.4477 204.976 89.9121 187.575 92.9887 182.979C101.07 188.391 110.192 204.976 120.985 204.976C124.774 204.976 142.683 186.41 144.982 182.979C148.199 185.134 150.323 187.897 153.24 190.721C158.282 195.603 158.323 194.04 157.069 202.003C149.298 251.371 161.202 254.274 142.171 242.783C138.249 240.415 123.997 230.973 119.985 230.973L119.986 230.971ZM27.997 172.979C28.1913 164.264 41.3728 129.831 44.9951 122.985C52.2637 124.925 61.6758 136.769 69.9395 136.056C73.8942 135.715 79.0783 131.256 82.19 129.183C96.1334 119.888 90.712 118.876 112.169 133.8C115.093 135.834 117.917 138.471 123.462 136.521L141.555 124.527C148.614 119.665 147.898 123.476 161.841 129.125C165.425 130.577 169.12 133.086 172.98 133.985C170.821 143.257 162.19 165.585 161.982 174.98C155.611 170.714 148.335 155.857 138.693 164.687C132.787 170.094 124.887 180.028 118.987 183.979C117.29 181.444 99.7147 161.944 93.9899 161.944C86.3799 161.944 77.134 177.857 67.9932 183.979C64.9136 179.381 54.9148 170.354 50.2823 165.694C39.7409 155.091 35.1385 168.199 27.999 172.981L27.997 172.979ZM178.978 117.986C172.803 116.547 156.328 106.183 148.519 103.375C137.664 99.4729 124.54 116.356 118.985 116.987C113.576 115.542 99.2942 102.988 95.9883 102.988C85.6851 102.988 83.2743 107.422 68.9914 116.987C65.8667 116.152 63.3117 113.989 60.8398 112.139C57.8362 109.891 56.3635 108.771 52.9935 106.988C57.67 98.1503 62.6109 90.5844 68.4117 82.4107C74.3688 74.0178 78.7109 74.5244 95.769 69.7738C133.462 59.2764 121.626 58.4565 138.787 69.1881C157.18 80.6917 150.298 80.1981 178.977 60.9935L202.802 72.3398C188.01 94.1155 188.029 99.1214 178.977 117.986H178.978ZM212.974 57.9929C202.772 55.6161 188.103 42.9952 177.979 42.9952C174.448 42.9952 164.217 50.445 159.558 53.5707C157.194 55.1566 155.834 56.383 153.983 57.9929C124.498 38.2486 132.149 40.6424 112.987 45.9948C108.98 47.1141 102.025 49.6581 97.9896 49.9945C99.7107 47.6457 107.775 41.7958 110.778 39.7864C121.842 32.3807 129.489 27.9585 142.601 23.6164C174.876 12.9297 217.418 16.9995 255.969 16.9995L238.544 30.5716C231.13 36.3654 217.827 50.7474 212.974 57.9949V57.9929ZM0.000999451 247.969C0.000999451 289.668 2.51797 318.326 14.1227 355.832C18.3727 369.568 22.4315 381.414 28.01 393.938L41.3378 419.606C47.5531 431.015 55.2071 440.916 62.9843 450.953C71.5955 462.067 78.816 468.292 88.7557 477.175C108.839 495.123 144.223 511.937 172.979 511.937H307.962C333.622 511.937 363.705 496.621 382.525 482.513C401.689 468.148 419.737 448.146 431.902 427.901C447.155 402.516 454.909 385.733 464.074 356.087C482.412 296.765 483.037 216.108 464.068 156.856C461.809 149.8 460.385 144.009 457.663 137.263C441.015 96.0028 419.68 57.177 383.098 29.8517C362.984 14.828 335.265 0.000488281 308.963 0.000488281H172.979C144.391 0.000488281 117.961 13.7727 96.577 28.5852C94.072 30.3203 91.5981 32.3296 89.2884 34.295C67.9562 52.4454 49.9519 75.0591 36.9836 99.9755L24.4078 126.395C22.9471 130.06 22.2483 132.398 20.8546 135.84C9.00963 165.094 0.000999451 212.258 0.000999451 247.97V247.969Z" fill="white"/>
<path fill-rule="evenodd" clip-rule="evenodd" d="M243.97 346.957C243.191 337.592 230.972 308.67 230.972 265.967C230.972 230.454 231.451 218.396 239.045 184.052L243.971 164.98C249.412 168.967 256.036 191.671 258.18 200.764C266.128 234.495 266.109 276.405 258.368 310.361C256.229 319.744 249.456 342.937 243.971 346.957H243.97ZM312.961 85.9889C333.317 85.9889 347.069 95.0075 358.393 109.549C368.204 122.149 374.988 133.498 381.388 149.546C410.405 222.321 408.487 327.968 365.155 393.15C362.438 397.237 361.372 398.575 358.266 402.259C318.154 449.842 276.734 419.509 254.5 372.368C251.234 365.443 251.964 367.437 255.961 361.962C264.46 350.321 271.207 331.092 274.768 316.763C284.253 278.594 284.492 234.157 274.968 195.974C272.713 186.929 270.55 179.96 267.254 171.691C264.144 163.885 260.392 156.045 255.96 149.975C251.05 143.25 250.528 147.682 259.62 129.638C268.616 111.786 290.187 85.9899 312.96 85.9899L312.961 85.9889ZM212.973 254.968C212.973 285.725 217.599 323.596 226.838 351.091C237.09 381.603 256.076 421.113 285.956 435.954C334.944 460.283 371.395 423.97 392.285 382.288C406.025 354.871 417.947 309.73 417.947 268.968V242.971C417.947 181.581 386.758 67.9927 314.96 67.9927C299.249 67.9927 281.252 76.3656 270.711 86.7368C241.769 115.214 227.74 148.563 219.714 188.721C215.779 208.415 212.972 230.863 212.972 254.97L212.973 254.968Z" fill="white"/>
</svg>
